<svg width="499" height="288" viewBox="0 0 499 288" fill="none" xmlns="http://www.w3.org/2000/svg">

<rect y="261" width="499" height="1" fill="#EEEEEE"/>
<circle cx="28" cy="283" r="4" fill="#7445FB"/>
<path d="M42.959 286H44.0137V278.494H46.6797V277.545H40.293V278.494H42.959V286ZM47.6875 286H48.707V282.443C48.707 281.406 49.334 280.691 50.2773 280.691C51.2266 280.691 51.7891 281.342 51.7891 282.443V286H52.8086V282.268C52.8086 280.791 51.9238 279.789 50.6289 279.789C49.7207 279.789 49.0586 280.193 48.7305 280.879H48.707V277.545H47.6875V286ZM54.6777 278.875C55.0352 278.875 55.3164 278.588 55.3164 278.236C55.3164 277.879 55.0352 277.598 54.6777 277.598C54.3262 277.598 54.0391 277.879 54.0391 278.236C54.0391 278.588 54.3262 278.875 54.6777 278.875ZM54.168 286H55.1875V279.906H54.168V286ZM58.7383 286.117C60.0977 286.117 61.1055 285.367 61.1055 284.301V284.295C61.1055 283.428 60.6602 282.941 59.4297 282.643L58.4629 282.408C57.7891 282.244 57.5137 281.957 57.5137 281.541V281.535C57.5137 280.996 57.9707 280.639 58.709 280.639C59.4648 280.639 59.916 281.031 59.998 281.623L60.0039 281.664H60.9766L60.9707 281.588C60.8945 280.568 60.0449 279.789 58.709 279.789C57.3906 279.789 56.4707 280.533 56.4707 281.582V281.588C56.4707 282.467 57.0273 283 58.1758 283.275L59.1426 283.51C59.834 283.68 60.0625 283.926 60.0625 284.365V284.371C60.0625 284.922 59.5703 285.268 58.7441 285.268C57.9121 285.268 57.4609 284.91 57.3379 284.301L57.3262 284.242H56.3066L56.3125 284.295C56.4355 285.385 57.3027 286.117 58.7383 286.117ZM64.627 286H65.6465V282.18C65.6465 281.33 66.2324 280.691 67.041 280.691C67.7969 280.691 68.2891 281.178 68.2891 281.916V286H69.3086V282.127C69.3086 281.295 69.877 280.691 70.6855 280.691C71.4883 280.691 71.9512 281.189 71.9512 282.027V286H72.9707V281.793C72.9707 280.58 72.1914 279.789 70.9844 279.789C70.1289 279.789 69.4141 280.229 69.0742 280.961H69.0508C68.7871 280.217 68.1719 279.789 67.3398 279.789C66.5547 279.789 65.9453 280.193 65.6699 280.797H65.6465V279.906H64.627V286ZM76.7969 286.117C78.4785 286.117 79.6152 284.898 79.6152 282.953V282.941C79.6152 280.996 78.4727 279.789 76.791 279.789C75.1094 279.789 73.9727 281.002 73.9727 282.941V282.953C73.9727 284.893 75.1035 286.117 76.7969 286.117ZM76.8027 285.215C75.7246 285.215 75.0156 284.389 75.0156 282.953V282.941C75.0156 281.518 75.7305 280.691 76.791 280.691C77.8691 280.691 78.5723 281.512 78.5723 282.941V282.953C78.5723 284.383 77.875 285.215 76.8027 285.215ZM80.6465 286H81.666V282.414C81.666 281.377 82.293 280.691 83.2539 280.691C84.1914 280.691 84.6543 281.236 84.6543 282.227V286H85.6738V282.045C85.6738 280.656 84.9004 279.789 83.5645 279.789C82.6387 279.789 82.0176 280.205 81.6895 280.773H81.666V279.906H80.6465V286ZM88.9551 286.117C89.1543 286.117 89.3711 286.094 89.5 286.076V285.25C89.4121 285.256 89.2949 285.273 89.1719 285.273C88.627 285.273 88.3398 285.092 88.3398 284.441V280.75H89.5V279.906H88.3398V278.26H87.2852V279.906H86.3945V280.75H87.2852V284.447C87.2852 285.613 87.8359 286.117 88.9551 286.117ZM90.6484 286H91.668V282.443C91.668 281.406 92.2949 280.691 93.2383 280.691C94.1875 280.691 94.75 281.342 94.75 282.443V286H95.7695V282.268C95.7695 280.791 94.8848 279.789 93.5898 279.789C92.6816 279.789 92.0195 280.193 91.6914 280.879H91.668V277.545H90.6484V286Z" fill="#9896A1"/>
<circle cx="113" cy="283" r="4" fill="#D5D5D6"/>
<path d="M125.82 287H130.953V286.051H126.875V278.545H125.82V287ZM133.736 287.117C134.551 287.117 135.283 286.678 135.641 286.01H135.664V287H136.684V282.787C136.684 281.568 135.781 280.789 134.34 280.789C132.904 280.789 132.031 281.598 131.943 282.6L131.938 282.664H132.922L132.934 282.611C133.051 282.066 133.543 281.691 134.328 281.691C135.178 281.691 135.664 282.143 135.664 282.887V283.396L133.918 283.496C132.518 283.578 131.709 284.229 131.709 285.266V285.277C131.709 286.385 132.523 287.117 133.736 287.117ZM132.752 285.277V285.266C132.752 284.697 133.221 284.334 134.035 284.287L135.664 284.188V284.686C135.664 285.57 134.926 286.232 133.965 286.232C133.232 286.232 132.752 285.863 132.752 285.277ZM140.141 287.117C141.5 287.117 142.508 286.367 142.508 285.301V285.295C142.508 284.428 142.062 283.941 140.832 283.643L139.865 283.408C139.191 283.244 138.916 282.957 138.916 282.541V282.535C138.916 281.996 139.373 281.639 140.111 281.639C140.867 281.639 141.318 282.031 141.4 282.623L141.406 282.664H142.379L142.373 282.588C142.297 281.568 141.447 280.789 140.111 280.789C138.793 280.789 137.873 281.533 137.873 282.582V282.588C137.873 283.467 138.43 284 139.578 284.275L140.545 284.51C141.236 284.68 141.465 284.926 141.465 285.365V285.371C141.465 285.922 140.973 286.268 140.146 286.268C139.314 286.268 138.863 285.91 138.74 285.301L138.729 285.242H137.709L137.715 285.295C137.838 286.385 138.705 287.117 140.141 287.117ZM145.549 287.117C145.748 287.117 145.965 287.094 146.094 287.076V286.25C146.006 286.256 145.889 286.273 145.766 286.273C145.221 286.273 144.934 286.092 144.934 285.441V281.75H146.094V280.906H144.934V279.26H143.879V280.906H142.988V281.75H143.879V285.447C143.879 286.613 144.43 287.117 145.549 287.117ZM149.65 287H150.67V283.18C150.67 282.33 151.256 281.691 152.064 281.691C152.82 281.691 153.312 282.178 153.312 282.916V287H154.332V283.127C154.332 282.295 154.9 281.691 155.709 281.691C156.512 281.691 156.975 282.189 156.975 283.027V287H157.994V282.793C157.994 281.58 157.215 280.789 156.008 280.789C155.152 280.789 154.438 281.229 154.098 281.961H154.074C153.811 281.217 153.195 280.789 152.363 280.789C151.578 280.789 150.969 281.193 150.693 281.797H150.67V280.906H149.65V287ZM161.82 287.117C163.502 287.117 164.639 285.898 164.639 283.953V283.941C164.639 281.996 163.496 280.789 161.814 280.789C160.133 280.789 158.996 282.002 158.996 283.941V283.953C158.996 285.893 160.127 287.117 161.82 287.117ZM161.826 286.215C160.748 286.215 160.039 285.389 160.039 283.953V283.941C160.039 282.518 160.754 281.691 161.814 281.691C162.893 281.691 163.596 282.512 163.596 283.941V283.953C163.596 285.383 162.898 286.215 161.826 286.215ZM165.67 287H166.689V283.414C166.689 282.377 167.316 281.691 168.277 281.691C169.215 281.691 169.678 282.236 169.678 283.227V287H170.697V283.045C170.697 281.656 169.924 280.789 168.588 280.789C167.662 280.789 167.041 281.205 166.713 281.773H166.689V280.906H165.67V287ZM173.979 287.117C174.178 287.117 174.395 287.094 174.523 287.076V286.25C174.436 286.256 174.318 286.273 174.195 286.273C173.65 286.273 173.363 286.092 173.363 285.441V281.75H174.523V280.906H173.363V279.26H172.309V280.906H171.418V281.75H172.309V285.447C172.309 286.613 172.859 287.117 173.979 287.117ZM175.672 287H176.691V283.443C176.691 282.406 177.318 281.691 178.262 281.691C179.211 281.691 179.773 282.342 179.773 283.443V287H180.793V283.268C180.793 281.791 179.908 280.789 178.613 280.789C177.705 280.789 177.043 281.193 176.715 281.879H176.691V278.545H175.672V287Z" fill="#9896A1"/>
<path opacity="0.3" d="M57 232C109.707 232 103.479 135 156.186 135C208.893 135 202.656 160.866 255.363 160.866C308.07 160.866 299.951 203.362 352.658 203.362C405.366 203.362 414.293 182.469 467 182.469" stroke="#858585" stroke-width="2" stroke-linecap="round" stroke-dasharray="4 4"/>
<path d="M57 232C108.268 232 114.817 160.783 166.086 160.783C217.354 160.783 208.854 104.2 260.123 104.2C311.391 104.2 300.411 134.276 351.679 134.276C402.947 134.276 415.732 78 467 78" stroke="#7445FB" stroke-width="2" stroke-linecap="round"/>
<path d="M57 232C107.692 232 114.168 160.511 164.86 160.511C215.552 160.511 207.148 103.656 257.84 103.656C308.532 103.656 302.308 134.238 353 134.238C396.5 136.745 419.683 75.3622 467 78.0881V232" fill="url(#paint0_linear_8_158)"/>
<line opacity="0.64" x1="57" y1="53.5" x2="467" y2="53.5" stroke="#858585" stroke-dasharray="1 6"/>
<path d="M34.9443 57.1172C36.3555 57.1172 37.3906 56.248 37.3906 55.0713V55.0615C37.3906 54.0605 36.6924 53.4209 35.667 53.333V53.3135C36.5459 53.1279 37.1611 52.5322 37.1611 51.6631V51.6533C37.1611 50.584 36.2773 49.8369 34.9346 49.8369C33.6162 49.8369 32.708 50.6035 32.5957 51.751L32.5908 51.7998H33.4355L33.4404 51.751C33.5137 51.0381 34.1045 50.5986 34.9346 50.5986C35.7939 50.5986 36.2773 51.0234 36.2773 51.7607V51.7705C36.2773 52.4736 35.6914 52.9912 34.8516 52.9912H34.0068V53.7334H34.8906C35.877 53.7334 36.4971 54.2168 36.4971 55.0811V55.0908C36.4971 55.8379 35.8672 56.3555 34.9443 56.3555C34.0068 56.3555 33.3721 55.877 33.2988 55.1836L33.2939 55.1348H32.4492L32.4541 55.1934C32.5469 56.3066 33.4893 57.1172 34.9443 57.1172ZM40.9453 57.1172C42.5664 57.1172 43.5381 55.7158 43.5381 53.4795V53.4697C43.5381 51.2334 42.5664 49.8369 40.9453 49.8369C39.3242 49.8369 38.3623 51.2334 38.3623 53.4697V53.4795C38.3623 55.7158 39.3242 57.1172 40.9453 57.1172ZM40.9453 56.3506C39.8711 56.3506 39.2461 55.2471 39.2461 53.4795V53.4697C39.2461 51.7021 39.8711 50.6084 40.9453 50.6084C42.0195 50.6084 42.6543 51.7021 42.6543 53.4697V53.4795C42.6543 55.2471 42.0195 56.3506 40.9453 56.3506ZM44.6025 57H45.4521V55.0859L45.9258 54.6318L47.8105 57H48.7969L46.5264 54.1143L48.7285 51.9219H47.6982L45.4717 54.1631H45.4521V49.9541H44.6025V57Z" fill="black" fill-opacity="0.48"/>
<line opacity="0.64" x1="57" y1="83.3334" x2="467" y2="83.3334" stroke="#858585" stroke-dasharray="1 6"/>
<path d="M32.5713 86.8334H37.2197V86.0521H33.7773V86.0326L35.4521 84.3138C36.7461 82.9906 37.1025 82.4095 37.1025 81.6381V81.6283C37.1025 80.5248 36.1699 79.6703 34.8955 79.6703C33.582 79.6703 32.5273 80.5736 32.5273 81.7943V81.8236H33.377V81.7992C33.377 81.0424 34.0312 80.4369 34.9102 80.4369C35.6768 80.4369 36.2188 80.9545 36.2236 81.6722V81.682C36.2236 82.2679 36.0039 82.6488 35.0518 83.64L32.5713 86.2279V86.8334ZM40.6572 86.9506C42.1221 86.9506 43.1621 85.9642 43.167 84.5531V84.5433C43.167 83.1908 42.1904 82.2094 40.8379 82.2094C40.1543 82.2094 39.5684 82.4633 39.2363 82.9369H39.2168L39.4561 80.5687H42.7666V79.7875H38.7334L38.3721 83.806H39.1484C39.2412 83.6449 39.3535 83.5082 39.4805 83.391C39.793 83.1078 40.2031 82.9662 40.6816 82.9662C41.6143 82.9662 42.2832 83.6302 42.2881 84.558V84.5677C42.2881 85.515 41.624 86.1791 40.667 86.1791C39.8223 86.1791 39.1973 85.6469 39.1094 84.9486L39.1045 84.9095H38.2402L38.2451 84.9633C38.3477 86.1107 39.3096 86.9506 40.6572 86.9506ZM44.1338 86.8334H44.9834V84.9193L45.457 84.4652L47.3418 86.8334H48.3281L46.0576 83.9476L48.2598 81.7552H47.2295L45.0029 83.9965H44.9834V79.7875H44.1338V86.8334Z" fill="black" fill-opacity="0.48"/>
<line opacity="0.64" x1="57" y1="113.167" x2="467" y2="113.167" stroke="#858585" stroke-dasharray="1 6"/>
<path d="M32.5713 116.667H37.2197V115.885H33.7773V115.866L35.4521 114.147C36.7461 112.824 37.1025 112.243 37.1025 111.471V111.462C37.1025 110.358 36.1699 109.504 34.8955 109.504C33.582 109.504 32.5273 110.407 32.5273 111.628V111.657H33.377V111.632C33.377 110.876 34.0312 110.27 34.9102 110.27C35.6768 110.27 36.2188 110.788 36.2236 111.505V111.515C36.2236 112.101 36.0039 112.482 35.0518 113.473L32.5713 116.061V116.667ZM40.6914 116.784C42.3125 116.784 43.2842 115.382 43.2842 113.146V113.136C43.2842 110.9 42.3125 109.504 40.6914 109.504C39.0703 109.504 38.1084 110.9 38.1084 113.136V113.146C38.1084 115.382 39.0703 116.784 40.6914 116.784ZM40.6914 116.017C39.6172 116.017 38.9922 114.914 38.9922 113.146V113.136C38.9922 111.369 39.6172 110.275 40.6914 110.275C41.7656 110.275 42.4004 111.369 42.4004 113.136V113.146C42.4004 114.914 41.7656 116.017 40.6914 116.017ZM44.3486 116.667H45.1982V114.753L45.6719 114.298L47.5566 116.667H48.543L46.2725 113.781L48.4746 111.589H47.4443L45.2178 113.83H45.1982V109.621H44.3486V116.667Z" fill="black" fill-opacity="0.48"/>
<line opacity="0.64" x1="57" y1="143" x2="467" y2="143" stroke="#858585" stroke-dasharray="1 6"/>
<path d="M34.3682 146.5H35.2178V139.454H34.3584L32.4834 140.802V141.686L34.3486 140.387H34.3682V146.5ZM39.4268 146.617C40.8916 146.617 41.9316 145.631 41.9365 144.22V144.21C41.9365 142.857 40.96 141.876 39.6074 141.876C38.9238 141.876 38.3379 142.13 38.0059 142.604H37.9863L38.2256 140.235H41.5361V139.454H37.5029L37.1416 143.473H37.918C38.0107 143.312 38.123 143.175 38.25 143.058C38.5625 142.774 38.9727 142.633 39.4512 142.633C40.3838 142.633 41.0527 143.297 41.0576 144.225V144.234C41.0576 145.182 40.3936 145.846 39.4365 145.846C38.5918 145.846 37.9668 145.313 37.8789 144.615L37.874 144.576H37.0098L37.0146 144.63C37.1172 145.777 38.0791 146.617 39.4268 146.617ZM42.9033 146.5H43.7529V144.586L44.2266 144.132L46.1113 146.5H47.0977L44.8271 143.614L47.0293 141.422H45.999L43.7725 143.663H43.7529V139.454H42.9033V146.5Z" fill="black" fill-opacity="0.48"/>
<line opacity="0.64" x1="57" y1="172.833" x2="467" y2="172.833" stroke="#858585" stroke-dasharray="1 6"/>
<path d="M34.3682 176.333H35.2178V169.287H34.3584L32.4834 170.635V171.519L34.3486 170.22H34.3682V176.333ZM39.4609 176.451C41.082 176.451 42.0537 175.049 42.0537 172.813V172.803C42.0537 170.567 41.082 169.17 39.4609 169.17C37.8398 169.17 36.8779 170.567 36.8779 172.803V172.813C36.8779 175.049 37.8398 176.451 39.4609 176.451ZM39.4609 175.684C38.3867 175.684 37.7617 174.58 37.7617 172.813V172.803C37.7617 171.036 38.3867 169.942 39.4609 169.942C40.5352 169.942 41.1699 171.036 41.1699 172.803V172.813C41.1699 174.58 40.5352 175.684 39.4609 175.684ZM43.1182 176.333H43.9678V174.419L44.4414 173.965L46.3262 176.333H47.3125L45.042 173.448L47.2441 171.255H46.2139L43.9873 173.496H43.9678V169.287H43.1182V176.333Z" fill="black" fill-opacity="0.48"/>
<line opacity="0.64" x1="57" y1="202.667" x2="467" y2="202.667" stroke="#858585" stroke-dasharray="1 6"/>
<path d="M34.9932 206.284C36.458 206.284 37.498 205.297 37.5029 203.886V203.877C37.5029 202.524 36.5264 201.543 35.1738 201.543C34.4902 201.543 33.9043 201.797 33.5723 202.27H33.5527L33.792 199.902H37.1025V199.121H33.0693L32.708 203.139H33.4844C33.5771 202.978 33.6895 202.841 33.8164 202.724C34.1289 202.441 34.5391 202.299 35.0176 202.299C35.9502 202.299 36.6191 202.964 36.624 203.891V203.901C36.624 204.848 35.96 205.512 35.0029 205.512C34.1582 205.512 33.5332 204.98 33.4453 204.282L33.4404 204.243H32.5762L32.5811 204.297C32.6836 205.444 33.6455 206.284 34.9932 206.284ZM38.4697 206.167H39.3193V204.253L39.793 203.798L41.6777 206.167H42.6641L40.3936 203.281L42.5957 201.089H41.5654L39.3389 203.33H39.3193V199.121H38.4697V206.167Z" fill="black" fill-opacity="0.48"/>
<line opacity="0.64" x1="57" y1="232.5" x2="467" y2="232.5" stroke="#858585" stroke-dasharray="1 6"/>
<path d="M35.0273 236.117C36.6484 236.117 37.6201 234.716 37.6201 232.479V232.47C37.6201 230.233 36.6484 228.837 35.0273 228.837C33.4062 228.837 32.4443 230.233 32.4443 232.47V232.479C32.4443 234.716 33.4062 236.117 35.0273 236.117ZM35.0273 235.351C33.9531 235.351 33.3281 234.247 33.3281 232.479V232.47C33.3281 230.702 33.9531 229.608 35.0273 229.608C36.1016 229.608 36.7363 230.702 36.7363 232.47V232.479C36.7363 234.247 36.1016 235.351 35.0273 235.351Z" fill="black" fill-opacity="0.48"/>
<rect x="237" y="58" width="56" height="32" rx="4" fill="#0A041C"/>
<path d="M252.709 78.8496H253.412V77.8652C254.795 77.7539 255.943 76.9629 255.943 75.5566V75.5449C255.943 74.3203 255.1 73.6992 253.594 73.3359L253.412 73.2949V70.6055C254.203 70.7051 254.766 71.1914 254.842 71.9766V71.9883L255.861 71.9824V71.9766C255.814 70.6875 254.766 69.8086 253.412 69.6855V68.6953H252.709V69.6855C251.32 69.8145 250.33 70.6699 250.33 71.9238V71.9355C250.33 73.084 251.115 73.7344 252.574 74.0859L252.709 74.1211V76.9395C251.689 76.8281 251.238 76.248 251.133 75.5215V75.5098L250.113 75.5156V75.5215C250.16 76.8809 251.314 77.7305 252.709 77.8594V78.8496ZM251.35 71.8652V71.8535C251.35 71.291 251.818 70.7285 252.709 70.6055V73.125C251.701 72.8789 251.35 72.4336 251.35 71.8652ZM253.447 74.2969C254.607 74.5781 254.924 74.9883 254.924 75.627V75.6387C254.924 76.3125 254.502 76.8633 253.412 76.9512V74.291L253.447 74.2969ZM258.059 78H259.91L263.443 70.9688V69.5391H257.396V70.9512H261.662V71.0508L258.059 78ZM263.432 80.2734H264.574L265.641 76.6465H263.947L263.432 80.2734ZM270.604 78.2168C272.502 78.2168 273.814 77.0039 273.814 75.2227V75.2109C273.814 73.5996 272.678 72.4395 271.102 72.4395C270.293 72.4395 269.637 72.791 269.297 73.3594H269.191L269.402 70.9512H273.311V69.5449H268.025L267.633 74.5488H269.15C269.244 74.3672 269.385 74.209 269.543 74.0801C269.824 73.8398 270.188 73.7168 270.615 73.7168C271.512 73.7168 272.15 74.3438 272.15 75.2461V75.2578C272.15 76.166 271.518 76.8047 270.609 76.8047C269.812 76.8047 269.232 76.3066 269.109 75.6855L269.098 75.6445H267.492L267.498 75.7266C267.598 77.1387 268.793 78.2168 270.604 78.2168ZM275.426 78H277.137V75.8379L277.605 75.3398L279.486 78H281.508L278.859 74.2852L281.338 71.5488H279.398L277.242 74.0977H277.137V69.082H275.426V78Z" fill="#FAFAFA"/>
<path d="M265 94L260.67 89.5L269.33 89.5L265 94Z" fill="#0A041C"/>
<rect opacity="0.2" x="264" y="105" width="1" height="157" fill="black"/>
<circle cx="264.5" cy="104.5" r="4.5" fill="#FAFAFA" stroke="#7445FB" stroke-width="2"/>
<defs>
<linearGradient id="paint0_linear_8_158" x1="262" y1="121.705" x2="262" y2="232" gradientUnits="userSpaceOnUse">
<stop stop-color="#7445FB" stop-opacity="0.16"/>
<stop offset="1" stop-color="#7445FB" stop-opacity="0"/>
</linearGradient>
</defs>
</svg>
